<svg width="28" height="28" viewBox="0 0 28 28" fill="none" xmlns="http://www.w3.org/2000/svg">
<path d="M16.0006 4.59889e-06L13.2176 3.55815C12.8524 3.56746 12.5025 3.65349 12.1526 3.73952L8.59446 0.95652L5.50098 2.7253L6.09454 7.20338C5.83372 7.49504 5.62506 7.72837 5.39801 8.02922L0.919924 8.62279L-1.00029e-05 11.9994L3.55814 14.7824C3.60121 15.1568 3.66267 15.4637 3.73951 15.8474L0.956506 19.4055L2.72528 22.499L7.20336 21.9055C7.47046 22.1233 7.72835 22.3749 8.02921 22.602L8.62277 27.0801L11.9993 28L14.7823 24.4419C15.123 24.3896 15.4975 24.3465 15.8474 24.2605L19.4055 27.0435L22.499 25.2747L21.9054 20.7966C22.1233 20.5295 22.3841 20.2379 22.602 19.9708L27.0801 19.3772L28 16.0007L24.4418 13.2177C24.4233 12.8862 24.3465 12.5025 24.2605 12.1526L27.0435 8.59447L25.2747 5.50099L20.7966 6.09456C20.5295 5.8767 20.2379 5.61588 19.9708 5.39802L19.3772 0.919939L16.0006 4.59889e-06ZM15.3891 8.90139C18.1916 9.66493 19.8376 12.5436 19.074 15.3461C18.3105 18.1487 15.4318 19.7946 12.6293 19.0311C9.82674 18.2675 8.18079 15.3889 8.94434 12.5863C9.70788 9.78379 12.5865 8.13784 15.3891 8.90139Z" fill="white"/>
</svg>
