<svg width="29" height="29" viewBox="0 0 29 29" fill="none" xmlns="http://www.w3.org/2000/svg">
<path d="M23.8814 21.5028L24.4468 26.0847C24.5918 27.2882 23.3014 28.1291 22.2719 27.5057L17.2551 24.5187C16.9071 24.3158 16.8201 23.8808 17.0086 23.5328C17.7335 22.1988 18.125 20.6909 18.125 19.1829C18.125 13.8761 13.5722 9.55521 7.97532 9.55521C6.82985 9.55521 5.71339 9.7292 4.66942 10.0772C4.13293 10.2512 3.61095 9.7582 3.74145 9.20722C5.06091 3.92938 10.1358 0 16.1966 0C23.2724 0 28.9997 5.35034 28.9997 11.9476C28.9997 15.8625 26.9843 19.3279 23.8814 21.5028Z" fill="#555555"/>
<path d="M15.9495 19.1826C15.9495 20.908 15.3115 22.503 14.2386 23.7645C12.8031 25.5044 10.5267 26.6209 7.97476 26.6209L4.19037 28.8683C3.55239 29.2598 2.74042 28.7233 2.82741 27.9838L3.1899 25.1274C1.24696 23.779 0 21.6185 0 19.1826C0 16.6307 1.36296 14.3832 3.45089 13.0493C4.74136 12.2083 6.29281 11.7298 7.97476 11.7298C12.3826 11.7298 15.9495 15.0647 15.9495 19.1826Z" fill="#555555"/>
</svg>
