<svg width="23" height="27" viewBox="0 0 23 27" fill="none" xmlns="http://www.w3.org/2000/svg">
<path d="M11.0723 24.1537C8.13837 24.1537 5.20451 23.6918 2.42176 22.7681C1.36406 22.4061 0.558196 21.6696 0.20563 20.7085C-0.159528 19.7473 -0.0336114 18.6863 0.545604 17.7376L1.99364 15.3534C2.29584 14.8541 2.57286 13.8555 2.57286 13.2688V9.6613C2.57286 5.01773 6.38813 1.23547 11.0723 1.23547C15.7564 1.23547 19.5716 5.01773 19.5716 9.6613V13.2688C19.5716 13.843 19.8486 14.8541 20.1508 15.3659L21.5863 17.7376C22.1277 18.6363 22.2285 19.7223 21.8633 20.7085C21.4981 21.6946 20.7049 22.4436 19.7101 22.7681C16.94 23.6918 14.0061 24.1537 11.0723 24.1537ZM11.0723 3.10788C7.43324 3.10788 4.46161 6.04132 4.46161 9.6613V13.2688C4.46161 14.18 4.08386 15.5281 3.61797 16.3146L2.16993 18.6988C1.89291 19.1606 1.81736 19.6474 1.98105 20.0594C2.13215 20.4838 2.5099 20.8083 3.02616 20.9831C8.28947 22.7307 13.8676 22.7307 19.1309 20.9831C19.5842 20.8333 19.9368 20.4963 20.1005 20.0469C20.2642 19.5975 20.2264 19.1107 19.9746 18.6988L18.5265 16.3146C18.048 15.5032 17.6829 14.1675 17.6829 13.2563V9.6613C17.6829 6.04132 14.7238 3.10788 11.0723 3.10788Z" fill="white"/>
<path d="M13.4139 3.44523C13.3258 3.44523 13.2377 3.43275 13.1495 3.40778C12.7844 3.30792 12.4318 3.23302 12.0918 3.18309C11.0215 3.04578 9.98901 3.12068 9.01946 3.40778C8.66689 3.52012 8.28918 3.40778 8.04994 3.14564C7.8107 2.88351 7.73515 2.50902 7.87366 2.17199C8.38991 0.861307 9.64904 0 11.0845 0C12.5199 0 13.7791 0.848825 14.2954 2.17199C14.4213 2.50902 14.3583 2.88351 14.1191 3.14564C13.9302 3.34537 13.6658 3.44523 13.4139 3.44523Z" fill="white"/>
<path d="M11.0717 27C9.82517 27 8.61637 26.5007 7.735 25.6269C6.85358 24.7531 6.34991 23.5548 6.34991 22.319H8.23866C8.23866 23.0554 8.54082 23.7794 9.06967 24.3037C9.59852 24.828 10.3288 25.1276 11.0717 25.1276C12.6331 25.1276 13.9049 23.8668 13.9049 22.319H15.7936C15.7936 24.9029 13.6782 27 11.0717 27Z" fill="white"/>
</svg>
