<svg width="21" height="22" viewBox="0 0 21 22" fill="none" xmlns="http://www.w3.org/2000/svg">
<path d="M10.0126 20.0252C4.49346 20.0252 0 15.5318 0 10.0126C0 4.49346 4.49346 0 10.0126 0C15.5318 0 20.0252 4.49346 20.0252 10.0126C20.0252 15.5318 15.5318 20.0252 10.0126 20.0252ZM10.0126 1.46526C5.29447 1.46526 1.46526 5.30424 1.46526 10.0126C1.46526 14.721 5.29447 18.56 10.0126 18.56C14.7307 18.56 18.56 14.721 18.56 10.0126C18.56 5.30424 14.7307 1.46526 10.0126 1.46526Z" fill="white"/>
<path d="M20.2698 21.002C20.0842 21.002 19.8986 20.9336 19.7521 20.7871L17.7984 18.8334C17.5151 18.5501 17.5151 18.0812 17.7984 17.7979C18.0817 17.5147 18.5506 17.5147 18.8339 17.7979L20.7875 19.7516C21.0708 20.0349 21.0708 20.5038 20.7875 20.7871C20.641 20.9336 20.4554 21.002 20.2698 21.002Z" fill="white"/>
</svg>
