<svg width="23" height="21" viewBox="0 0 23 21" fill="none" xmlns="http://www.w3.org/2000/svg">
<path d="M23 2.94187C23 3.38048 22.6363 3.7442 22.1977 3.7442L10.4302 3.7442C9.99163 3.7442 9.62791 3.38048 9.62791 2.94187C9.62791 2.50327 9.99163 2.13955 10.4302 2.13955L22.1977 2.13955C22.6363 2.13955 23 2.50327 23 2.94187Z" fill="white"/>
<path d="M6.95349 2.94187C6.95349 3.38048 6.58977 3.7442 6.15116 3.7442L0.802326 3.7442C0.363721 3.7442 0 3.38048 0 2.94187C0 2.50327 0.363721 2.13955 0.802326 2.13955L6.15116 2.13955C6.58977 2.13955 6.95349 2.50327 6.95349 2.94187Z" fill="white"/>
<path d="M23 10.4302C23 10.8688 22.6363 11.2326 22.1977 11.2326H16.8488C16.4102 11.2326 16.0465 10.8688 16.0465 10.4302C16.0465 9.99163 16.4102 9.62791 16.8488 9.62791H22.1977C22.6363 9.62791 23 9.99163 23 10.4302Z" fill="white"/>
<path d="M13.3721 10.4302C13.3721 10.8688 13.0084 11.2326 12.5698 11.2326H0.802326C0.363721 11.2326 0 10.8688 0 10.4302C0 9.99163 0.363721 9.62791 0.802326 9.62791H12.5698C13.0084 9.62791 13.3721 9.99163 13.3721 10.4302Z" fill="white"/>
<path d="M23 17.9186C23 18.3572 22.6363 18.7209 22.1977 18.7209H10.4302C9.99163 18.7209 9.62791 18.3572 9.62791 17.9186C9.62791 17.48 9.99163 17.1163 10.4302 17.1163H22.1977C22.6363 17.1163 23 17.48 23 17.9186Z" fill="white"/>
<path d="M6.95349 17.9186C6.95349 18.3572 6.58977 18.7209 6.15116 18.7209H0.802326C0.363721 18.7209 0 18.3572 0 17.9186C0 17.48 0.363721 17.1163 0.802326 17.1163H6.15116C6.58977 17.1163 6.95349 17.48 6.95349 17.9186Z" fill="white"/>
<path d="M11.2326 15.7791L11.2326 20.0581C11.2326 20.4967 10.8688 20.8605 10.4302 20.8605C9.99163 20.8605 9.62791 20.4967 9.62791 20.0581V15.7791C9.62791 15.3405 9.99163 14.9767 10.4302 14.9767C10.8688 14.9767 11.2326 15.3405 11.2326 15.7791Z" fill="white"/>
<path d="M11.2326 0.802311L11.2326 5.08138C11.2326 5.51999 10.8688 5.88371 10.4302 5.88371C9.99163 5.88371 9.62791 5.51999 9.62791 5.08138V0.802311C9.62791 0.363706 9.99163 -1.46805e-05 10.4302 -1.46805e-05C10.8688 -1.46805e-05 11.2326 0.363706 11.2326 0.802311Z" fill="white"/>
<path d="M13.3721 8.29071L13.3721 12.5698C13.3721 13.0084 13.0084 13.3721 12.5698 13.3721C12.1312 13.3721 11.7674 13.0084 11.7674 12.5698V8.29071C11.7674 7.8521 12.1312 7.48838 12.5698 7.48838C13.0084 7.48838 13.3721 7.8521 13.3721 8.29071Z" fill="white"/>
</svg>
