<svg width="16" height="19" viewBox="0 0 16 19" fill="none" xmlns="http://www.w3.org/2000/svg">
<path d="M7.99838 11.0194C6.18167 11.0194 4.69762 9.54389 4.69762 7.71868C4.69762 5.89351 6.18167 4.42651 7.99838 4.42651C9.81507 4.42651 11.2991 5.90204 11.2991 7.72721C11.2991 9.55242 9.81507 11.0194 7.99838 11.0194ZM7.99838 5.70587C6.88961 5.70587 5.97697 6.60994 5.97697 7.72721C5.97697 8.84451 6.88108 9.74859 7.99838 9.74859C9.11568 9.74859 10.0198 8.84451 10.0198 7.72721C10.0198 6.60994 9.10716 5.70587 7.99838 5.70587Z" fill="#292D32"/>
<path d="M7.99737 18.3459C6.73507 18.3459 5.46424 17.8683 4.47487 16.9216C1.95881 14.4993 -0.821651 10.6357 0.227419 6.03855C1.17414 1.86786 4.81603 0 7.99737 0H8.0059C11.1872 0 14.8291 1.86786 15.7758 6.04708C16.8164 10.6442 14.0359 14.4993 11.5199 16.9216C10.5305 17.8683 9.25966 18.3459 7.99737 18.3459ZM7.99737 1.27935C5.51541 1.27935 2.32556 2.60135 1.48119 6.32001C0.560051 10.3372 3.08464 13.8 5.37042 15.9919C6.84595 17.4163 9.15732 17.4163 10.6328 15.9919C12.9101 13.8 15.4347 10.3372 14.5306 6.32001C13.6777 2.60135 10.4793 1.27935 7.99737 1.27935Z" fill="#292D32"/>
</svg>
